# xmcd
#
# Track frame offsets: 
#        150
#        26805
#        53200
#        87250
#        108635
#        135740
#        158077
#
# Disc length: 2655 seconds
#
# Revision: 6
# Processed by: cddbd v1.5.2PL0 Copyright (c) Steve Scherf et al.
# Submitted via: ExactAudioCopyFreeDBPlugin 1.0
#
DISCID=590a5d07
DTITLE=朱哲琴 - 阿姐鼓
DYEAR=1997
DGENRE=New Age
TTITLE0=沒有陰影的家園
TTITLE1=阿姐鼓
TTITLE2=天唱
TTITLE3=天堂, 地獄
TTITLE4=羚羊過山崗
TTITLE5=卓瑪的卓瑪
TTITLE6=祈禱輪
EXTD=
EXTT0=
EXTT1=
EXTT2=
EXTT3=
EXTT4=
EXTT5=
EXTT6=
PLAYORDER=
